<svg xmlns="http://www.w3.org/2000/svg" viewBox="0 0 1024 1024">
<rect width="1024" height="1024" fill="#FDFCFB"/>
<circle cx="512.0" cy="445" r="218" fill="#d4740a"/>
<polygon points="132.0,198.0 151.0,203.5 170.0,208.8 189.0,213.6 208.0,218.2 227.0,222.4 246.0,226.3 265.0,229.8 284.0,233.1 303.0,236.0 322.0,238.7 341.0,241.0 360.0,243.1 379.0,244.8 398.0,246.3 417.0,247.5 436.0,248.5 455.0,249.2 474.0,249.7 493.0,249.9 512.0,250.0 531.0,249.9 550.0,249.7 569.0,249.2 588.0,248.5 607.0,247.5 626.0,246.3 645.0,244.8 664.0,243.1 683.0,241.0 702.0,238.7 721.0,236.0 740.0,233.1 759.0,229.8 778.0,226.3 797.0,222.4 816.0,218.2 835.0,213.6 854.0,208.8 873.0,203.5 892.0,198.0 892.0,287.4 873.0,291.9 854.0,296.2 835.0,300.2 816.0,303.9 797.0,307.4 778.0,310.5 759.0,313.5 740.0,316.1 721.0,318.6 702.0,320.7 683.0,322.6 664.0,324.3 645.0,325.8 626.0,327.0 607.0,328.0 588.0,328.8 569.0,329.3 550.0,329.7 531.0,329.9 512.0,330.0 493.0,329.9 474.0,329.7 455.0,329.3 436.0,328.8 417.0,328.0 398.0,327.0 379.0,325.8 360.0,324.3 341.0,322.6 322.0,320.7 303.0,318.6 284.0,316.1 265.0,313.5 246.0,310.5 227.0,307.4 208.0,303.9 189.0,300.2 170.0,296.2 151.0,291.9 132.0,287.4" fill="#8B2C2C"/>
<polygon points="182.0,340.0 842.0,340.0 842.0,396.0 182.0,396.0" fill="#8B2C2C"/>
<polygon points="190.0,560.0 834.0,560.0 834.0,628.0 190.0,628.0" fill="#8B2C2C"/>
<polygon points="482.0,396.0 542.0,396.0 542.0,560.0 482.0,560.0" fill="#8B2C2C"/>
<polygon points="223.0,380.0 297.0,380.0 279.0,900.0 205.0,900.0" fill="#8B2C2C"/>
<polygon points="727.0,380.0 801.0,380.0 819.0,900.0 745.0,900.0" fill="#8B2C2C"/>
</svg>